<?xml version="1.0" standalone="no"?>
<!DOCTYPE svg PUBLIC "-//W3C//DTD SVG 20010904//EN"
 "http://www.w3.org/TR/2001/REC-SVG-20010904/DTD/svg10.dtd">
<svg version="1.0" xmlns="http://www.w3.org/2000/svg"
 width="500.000000pt" height="500.000000pt" viewBox="0 0 500.000000 500.000000"
 preserveAspectRatio="xMidYMid meet">

<g transform="translate(0.000000,500.000000) scale(0.100000,-0.100000)"
fill="#000000" stroke="none">
<path d="M1663 3503 c-10 -4 -13 -113 -13 -499 l0 -494 28 0 c25 0 38 19 165
239 l137 239 0 96 0 96 520 0 520 0 0 -97 0 -96 73 -126 c41 -69 102 -177 138
-238 57 -100 67 -113 92 -113 l27 0 0 500 0 500 -837 -1 c-461 0 -844 -3 -850
-6z"/>
<path d="M1942 2727 c-134 -234 -215 -374 -265 -457 l-27 -46 128 -219 c70
-121 165 -286 212 -367 l84 -148 426 0 426 0 64 112 c36 62 78 134 93 161 15
27 53 93 84 146 31 53 84 145 119 206 l63 110 -26 45 c-50 83 -131 223 -265
457 l-133 233 -425 0 -425 0 -133 -233z m865 -227 c109 -188 153 -268 153
-278 0 -4 -41 -80 -92 -167 -50 -88 -101 -177 -112 -197 l-21 -38 -235 0 -235
0 -21 38 c-11 20 -62 109 -112 196 -51 88 -92 164 -92 169 0 9 204 371 223
395 7 9 64 12 241 10 l231 -3 72 -125z"/>
</g>
</svg>
